# xmcd
#
# Track frame offsets:
#	150
#	21726
#	36044
#	50873
#	65055
#	89802
#	112747
#	125419
#	136598
#	149937
#	166616
#	182441
#	197285
#	212097
#	225826
#	241581
#
# Disc length: 3383 seconds
#
# Revision: 1
# Processed by: cddbd v1.5.2PL0 Copyright (c) Steve Scherf et al.
# Submitted via: audiograbber 1.83.01
#
DISCID=db0d3510
DTITLE=Die Edlseer - Die größten HITS der Volksmusik
DYEAR=2003
DGENRE=Volksmusik
TTITLE0=Edlseer-Hit-Medley
TTITLE1=Herzschlag für Herzschlag
TTITLE2=Ha-Le-Lu-Ja
TTITLE3=Dahoam is Dahoam
TTITLE4=Fürstenfeld
TTITLE5=Walzer-Medley
TTITLE6=DJ, Leg an Landler auf
TTITLE7=Steirermen san very good
TTITLE8=Die Hände zum Himmel
TTITLE9=Polka-Medley
TTITLE10=Sierra Madre
TTITLE11=Baby blue
TTITLE12=Wenn's Sommer wird - Neue Version 2003
TTITLE13=Wir sind alle Indianer - Neue Version 2003
TTITLE14=Toni Ebner - I bin da Toni
TTITLE15=Die Edlseer and Toni Ebner - DJ drah den Plattenteller
EXTD=
EXTT0=
EXTT1=
EXTT2=
EXTT3=
EXTT4=
EXTT5=
EXTT6=
EXTT7=
EXTT8=
EXTT9=
EXTT10=
EXTT11=
EXTT12=
EXTT13=
EXTT14=
EXTT15=
PLAYORDER=
